<svg xmlns="http://www.w3.org/2000/svg" width="128" height="128" fill-rule="evenodd" clip-rule="evenodd" image-rendering="optimizeQuality" shape-rendering="geometricPrecision" text-rendering="geometricPrecision" viewBox="0 0 1333.33 1333.33" id="Asics">
  <path fill="#494e50" fill-rule="nonzero" d="M296.52 731.65c-17.72 0-26.23-13.62-21.8-29.39 9.19-32.66 68.2-81.07 108.4-81.07 29.35 0 27.1 26.24 9.92 48.63l-9.51 10.51c-34.08 33.46-65.69 51.33-87.02 51.33zm143.74-220.28c-51.32.02-107.85 31.42-143.33 61.15l2.8 4.05c55.07-38.61 131.52-63.72 152.61-26.06 11.13 19.88-7.77 60.01-34.37 91.73 6.38-14.01 2.18-40.91-34.91-40.91-61.69 0-183.06 81.7-183.06 165.28 0 33.5 23.22 55.35 61.48 55.35 102.43 0 241.35-167.9 241.35-252.23-.01-29.78-17.15-58.37-62.56-58.37zM572.12 731.65c-5.95 0-10.91-2.09-14.02-5.87-3.24-3.99-4.2-9.62-2.66-15.45 3.39-12.66 17.03-22.57 31.03-22.57l32.96 0-11.77 43.9-35.55 0zm94.76-131.64c-9.44-11.59-24.69-16.78-35.61-16.78l-59.91 0-10.17 37.93 56.49 0 5.41.57c.06 0 5.21.6 8.04 4.46 2.32 3.21 2.66 8 .99 14.27l-2.67 9.97-35.59 0c-30.64 0-73.35 21.98-82.86 57.48-4.74 17.71-.59 33.04 8.61 44.31 9.13 11.19 26.34 17.35 44.95 17.35l32.96 0-.02.01 41.9 0 19.66-73.39 14.46-53.94c5.67-21.22-.48-34.69-6.66-42.25zM1078.35 583.23c-16.2 0-31.25 4.8-43.5 13.88-12.37 9.16-19.19 20.17-23.26 35.33-8.81 32.89 17.02 48.76 37.81 60 14.89 8.07 27.76 15.03 24.99 25.34-1.98 7.41-5.21 13.87-23.54 13.87l-55.93 0-10.15 37.93 61.91 0c16.6 0 31.92-3.46 44.26-12.94 12.37-9.5 19.35-22.76 23.68-38.93 4.13-15.4 1.33-30.09-8.56-41.07-8.25-9.2-20.13-15.6-30.6-21.25-13.41-7.22-26.04-14.02-23.83-22.29 1.34-4.98 6.31-11.95 17.14-11.95l54.39 0 10.17-37.93-54.98 0zM753.73 583.23c-16.2 0-31.26 4.8-43.52 13.88-12.36 9.16-19.18 20.17-23.27 35.33-8.81 32.89 17.06 48.76 37.82 60 14.89 8.07 27.76 15.03 24.99 25.34-1.98 7.41-5.21 13.87-23.54 13.87l-55.92 0-10.17 37.93 61.91 0c16.62 0 31.94-3.46 44.28-12.94 12.37-9.5 19.35-22.76 23.68-38.93 4.13-15.4 1.32-30.09-8.56-41.07-8.24-9.2-20.14-15.6-30.63-21.25-13.39-7.22-26.03-14.02-23.8-22.29 1.33-4.98 6.31-11.95 17.12-11.95l54.38 0 10.18-37.93-54.96 0z" class="color1a1a1a svgShape"></path>
  <polygon fill="#494e50" fill-rule="nonzero" points="838.2 583.23 789.65 769.58 830.67 769.58 879.2 583.23" class="color1a1a1a svgShape"></polygon>
  <path fill="#494e50" fill-rule="nonzero" d="M988.35 583.23c-72.22,0.26 -110,48.37 -122.01,93.17 -14.23,53.13 14.06,93.18 65.79,93.18l34.67 0 10.15 -37.93 -34.65 0c-19.37,0 -45.98,-15.24 -35.26,-55.26 8.52,-31.81 39.52,-55.25 73.56,-55.25l22.01 0 10.16 -37.93 -24.43 0z" class="color1a1a1a svgShape"></path>
</svg>
